<svg xmlns="http://www.w3.org/2000/svg" viewBox="0 0 1920 1280"><defs><style>.cls-1{fill:none;}</style></defs><g id="MTN_Logo"><path d="M960,320c-353.46,0-640,143.27-640,320S606.54,960,960,960s640-143.27,640-320S1313.46,320,960,320Zm0,589.48c-325.56,0-589.48-120.65-589.48-269.48S634.44,370.52,960,370.52,1549.48,491.17,1549.48,640,1285.56,909.48,960,909.48ZM879.29,583.86V533.33h180.55v50.53h-65V746.67H944.3V583.86Zm398.49-50.53V746.67h-50.52l-91.63-127v127h-50.52V533.33h50.52l91.63,127v-127ZM640.72,746.67V533.33h50.52l56.13,86.34,56.13-86.34H854V746.67H803.5V626L765.18,684.9H729.56L691.24,626V746.67Z"/></g><g id="Digital_clear_space"><path class="cls-1" d="M0,1280c176.73,0,320-286.54,320-640S176.73,0,0,0"/><path class="cls-1" d="M1920,0c-176.73,0-320,286.54-320,640s143.27,640,320,640"/><path class="cls-1" d="M1600,1280c0-176.73-286.54-320-640-320s-640,143.27-640,320"/><path class="cls-1" d="M320,0c0,176.73,286.54,320,640,320S1600,176.73,1600,0"/><rect class="cls-1" width="1920" height="1280"/></g></svg>